<svg width="40" height="40" viewBox="0 0 40 40" fill="none" xmlns="http://www.w3.org/2000/svg">
<path fill-rule="evenodd" clip-rule="evenodd" d="M21.8272 30.4257L20.0002 32.021L18.1731 30.4257C11.6475 24.7277 8.3335 19.6854 8.3335 15C8.3335 8.36903 13.506 3.33334 20.0002 3.33334C26.4943 3.33334 31.6668 8.36903 31.6668 15C31.6668 19.6854 28.3528 24.7277 21.8272 30.4257ZM9.47608 24.6724C10.1604 25.6093 10.9227 26.5622 11.7626 27.5316C8.65891 28.2307 6.66683 29.2228 6.66683 30C6.66683 31.3449 12.6321 33.3333 20.0002 33.3333C27.3683 33.3333 33.3335 31.3449 33.3335 30C33.3335 29.2228 31.3414 28.2307 28.2377 27.5316C29.0776 26.5622 29.8399 25.6093 30.5242 24.6724C34.2723 25.8097 36.6668 27.634 36.6668 30C36.6668 34.1779 29.2006 36.6667 20.0002 36.6667C10.7997 36.6667 3.3335 34.1779 3.3335 30C3.3335 27.634 5.72806 25.8097 9.47608 24.6724ZM20.0002 6.66668C24.6731 6.66668 28.3335 10.2303 28.3335 15C28.3335 18.4116 25.6213 22.6098 20.0002 27.5934C14.379 22.6098 11.6668 18.4116 11.6668 15C11.6668 10.2303 15.3272 6.66668 20.0002 6.66668ZM20.0002 10C22.7616 10 25.0002 12.2386 25.0002 15C25.0002 17.7614 22.7616 20 20.0002 20C17.2387 20 15.0002 17.7614 15.0002 15C15.0002 12.2386 17.2387 10 20.0002 10ZM18.3335 15C18.3335 14.0795 19.0797 13.3333 20.0002 13.3333C20.9206 13.3333 21.6668 14.0795 21.6668 15C21.6668 15.9205 20.9206 16.6667 20.0002 16.6667C19.0797 16.6667 18.3335 15.9205 18.3335 15Z" fill="#FFCC00"/>
</svg>
